<mxfile host="app.diagrams.net" modified="2021-03-04T09:56:40.988Z" agent="5.0 (Macintosh; Intel Mac OS X 10_14_6) AppleWebKit/537.36 (KHTML, like Gecko) Chrome/88.0.4324.150 Safari/537.36" etag="62WvGWtg5wlh1LsDNZSk" version="14.4.4" type="github">
  <diagram id="f80tGyujH1ioxX340dtu" name="Page-1">
    <mxGraphModel dx="1426" dy="2060" grid="1" gridSize="10" guides="1" tooltips="1" connect="1" arrows="1" fold="1" page="1" pageScale="1" pageWidth="827" pageHeight="1169" math="0" shadow="0">
      <root>
        <mxCell id="0" />
        <mxCell id="1" parent="0" />
        <mxCell id="FpeEruHiEG0ho4Uv4xyN-2" value="CUSTOMER" style="rounded=0;whiteSpace=wrap;html=1;align=left;verticalAlign=bottom;" vertex="1" parent="1">
          <mxGeometry y="-10" width="550" height="680" as="geometry" />
        </mxCell>
        <mxCell id="Hx5D3NNydIrSnGcZvrM5-19" value="Personal" style="rounded=0;whiteSpace=wrap;html=1;align=left;verticalAlign=top;" parent="1" vertex="1">
          <mxGeometry x="50" y="180" width="320" height="290" as="geometry" />
        </mxCell>
        <mxCell id="Hx5D3NNydIrSnGcZvrM5-18" value="Deltagare" style="rounded=0;whiteSpace=wrap;html=1;align=left;verticalAlign=top;" parent="1" vertex="1">
          <mxGeometry x="50" y="20" width="320" height="140" as="geometry" />
        </mxCell>
        <mxCell id="Hx5D3NNydIrSnGcZvrM5-1" value="Mötesdeltagare (ROLE_USER)" style="shape=umlActor;verticalLabelPosition=bottom;verticalAlign=top;html=1;outlineConnect=0;" parent="1" vertex="1">
          <mxGeometry x="180" y="40" width="30" height="60" as="geometry" />
        </mxCell>
        <mxCell id="Hx5D3NNydIrSnGcZvrM5-2" value="Stödjande mötesdeltagare (ROLE_&lt;br&gt;USER_SUPPORT)" style="shape=umlActor;verticalLabelPosition=bottom;verticalAlign=top;html=1;outlineConnect=0;" parent="1" vertex="1">
          <mxGeometry x="190" y="190" width="30" height="60" as="geometry" />
        </mxCell>
        <mxCell id="Hx5D3NNydIrSnGcZvrM5-3" value="Anställd som kan ha möten (ROLE_&lt;br&gt;STAFF)" style="shape=umlActor;verticalLabelPosition=bottom;verticalAlign=top;html=1;outlineConnect=0;" parent="1" vertex="1">
          <mxGeometry x="190" y="340" width="30" height="60" as="geometry" />
        </mxCell>
        <mxCell id="Hx5D3NNydIrSnGcZvrM5-10" value="Stödjande anställd (ROLE_&lt;br&gt;STAFF_SUPPORT)" style="shape=umlActor;verticalLabelPosition=bottom;verticalAlign=top;html=1;outlineConnect=0;" parent="1" vertex="1">
          <mxGeometry x="190" y="510" width="30" height="60" as="geometry" />
        </mxCell>
        <mxCell id="Hx5D3NNydIrSnGcZvrM5-20" value="Kan var med i möten" style="rounded=0;whiteSpace=wrap;html=1;" parent="1" vertex="1">
          <mxGeometry x="390" y="20" width="80" height="400" as="geometry" />
        </mxCell>
        <mxCell id="FpeEruHiEG0ho4Uv4xyN-1" value="PLATFORM_ADMIN" style="shape=umlActor;verticalLabelPosition=bottom;verticalAlign=top;html=1;outlineConnect=0;align=center;" vertex="1" parent="1">
          <mxGeometry x="650" y="70" width="30" height="60" as="geometry" />
        </mxCell>
        <mxCell id="FpeEruHiEG0ho4Uv4xyN-8" value="Admininstrera system (ADMIN_SITE)" style="shape=umlActor;verticalLabelPosition=bottom;verticalAlign=top;html=1;outlineConnect=0;" vertex="1" parent="1">
          <mxGeometry x="415" y="510" width="30" height="60" as="geometry" />
        </mxCell>
        <mxCell id="FpeEruHiEG0ho4Uv4xyN-18" value="Kan delta i möten som deltagare" style="whiteSpace=wrap;html=1;shape=mxgraph.basic.rectCallout;dx=30;dy=15;boundedLbl=1;align=left;fontSize=10;" vertex="1" parent="1">
          <mxGeometry x="210" y="30" width="100" height="60" as="geometry" />
        </mxCell>
        <mxCell id="FpeEruHiEG0ho4Uv4xyN-19" value="&lt;span&gt;Kan delta i möten som deltagare&lt;/span&gt;&lt;br&gt;&lt;span&gt;Tillhör kunden&lt;/span&gt;&lt;br&gt;&lt;span&gt;Har en titel&lt;/span&gt;" style="whiteSpace=wrap;html=1;shape=mxgraph.basic.rectCallout;dx=30;dy=15;boundedLbl=1;align=left;fontSize=10;" vertex="1" parent="1">
          <mxGeometry x="230" y="170" width="100" height="80" as="geometry" />
        </mxCell>
        <mxCell id="FpeEruHiEG0ho4Uv4xyN-20" value="&lt;span&gt;Kan delta i möten som organisatör&lt;/span&gt;&lt;br&gt;Kan admin möten&lt;br&gt;Kan lägga till ny USER&lt;br&gt;Kan ha SITE_ADMIN" style="whiteSpace=wrap;html=1;shape=mxgraph.basic.rectCallout;dx=30;dy=15;boundedLbl=1;align=left;fontSize=10;" vertex="1" parent="1">
          <mxGeometry x="230" y="300" width="130" height="100" as="geometry" />
        </mxCell>
        <mxCell id="FpeEruHiEG0ho4Uv4xyN-24" value="Kan admin möten åt andra STAFF&lt;br&gt;Kan lägga till ny USER&lt;br&gt;Kan ha SITE_ADMIN" style="whiteSpace=wrap;html=1;shape=mxgraph.basic.rectCallout;dx=30;dy=15;boundedLbl=1;align=left;fontSize=10;" vertex="1" parent="1">
          <mxGeometry x="230" y="490" width="160" height="80" as="geometry" />
        </mxCell>
        <mxCell id="FpeEruHiEG0ho4Uv4xyN-25" value="Kan lägga till ny STAFF*&lt;br&gt;Kan lägga till SITE_ADMIN på STAFF*&lt;br&gt;Ändra inställningar på CUSTOMER" style="whiteSpace=wrap;html=1;shape=mxgraph.basic.rectCallout;dx=30;dy=15;boundedLbl=1;align=left;fontSize=10;" vertex="1" parent="1">
          <mxGeometry x="460" y="480" width="160" height="80" as="geometry" />
        </mxCell>
        <mxCell id="FpeEruHiEG0ho4Uv4xyN-27" value="Kan skapa ny CUSTOMER&lt;br&gt;Kan ta bort saker" style="whiteSpace=wrap;html=1;shape=mxgraph.basic.rectCallout;dx=46;dy=17;boundedLbl=1;fontSize=10;align=left;" vertex="1" parent="1">
          <mxGeometry x="700" y="40" width="100" height="60" as="geometry" />
        </mxCell>
      </root>
    </mxGraphModel>
  </diagram>
</mxfile>
